<svg xmlns="http://www.w3.org/2000/svg" xmlns:xlink="http://www.w3.org/1999/xlink" viewBox="0 0 504.3 124.2" enable-background="new 0 0 504.3 124.2"><defs><path id="a" d="M2 2.2h500v131h-500z"/></defs><clipPath id="b"><use xlink:href="#a" overflow="visible"/></clipPath><path clip-path="url(#b)" fill="#D7D6D6" d="M4 133.2v-4l-1.7-3.3h2.3l-.3-8.5h-2l-.3-.8s1.1-1.2 1.9-2.3c.7-1 .9-3.2 1.3-3.7 1.6-2.3 4.2-2.1 5.1-.9v-17.2l-1.8-2.7.2-2.6h-1.1l.3-1.7-1.6-.9-1-1.7s1.8-1.3 2-2.8c.1-1.4-.3-28.5 26.1-37.8 0 0-.3-.6-.3-1.2 0-.7 1-1 2.1-1 0 0-.8-.5-.8-1.1 0-.3.6-.7 1.2-.7 0 0-.1-.4-.5-.5-.4-.1-2.9-1.8-2.9-4.8s3.3-4.9 4.6-4.9l-.1-14.9h-4s-.3 1.2-1.7 1.2c-.6 0-.9-.8-.9-.8s-1.4-.2-1.5-1.4c0-1 1.1-.9 1.1-.9s.5-1.8 1.8-1.7c1.3.1 1.2 1.4 1.2 1.4h4.1v-3.5s-1.8-.3-1.8-1.8c0-1.1 1.5-1.3 1.5-1.3s-.4-2.2 1.3-2.2c1.6 0 1.2 2.2 1.2 2.2s1.2.1 1.2 1.4c0 1.4-1.2 1.4-1.2 1.4v3.5s2.3.1 3.6 0c0 0 .6-1.5 1.7-1.5s1.7 1.4 1.7 1.4.9.2 1.1 1.3c.2 1.1-1.4 1.2-1.4 1.2s-.3 1-1.2 1.1c-1 .1-1.6-1-1.6-1l-3.9-.1-.1 15s4.4.8 4.4 5.2c0 4.3-3.5 4.7-3.5 4.7s-.3.2.3.4c.5.3.9 1.2-.4 1.6 0 0 2.2.3 2.5 1.2 0 0 0 .5-.4.7 0 0 27.1 6.7 27.7 38.6l1.6 2.4-.7 1.3-1.2.9.1 1.7h-1.3v3l-2 3.2-.1 16.5s1.8-1.9 4 0c2.9 2.5 1.2 5.7 3.5 7.6l-.2.5h-1.3l.2 8.4h2l-1.7 2.9v4.3h-68.4z"/><path clip-path="url(#b)" fill="#D2232A" d="M372.3 70.2c0 3.7-2.5 2.7-2.5 3.6 0 .2.1.4.4.4l4-.2c1.8 0 3.6.2 5.5.2 9.9 0 13.8-6.1 13.8-15 0-7.1-6.2-12.3-12.5-12.3-3.1 0-5.4.2-7.8.2l-3.2-.2c-.2 0-.5.1-.5.4 0 1 2.9-.2 2.9 3.7v19.2zm2.8-19.9c0-1.8.1-2.4 3.5-2.4 6.8 0 12.1 4.9 12.1 13.4 0 8.9-4.8 11.8-9.9 11.8-1.6 0-4.3-.5-5.5-1.7-.3-.3-.2-2.2-.2-2.8v-18.3z"/><path clip-path="url(#b)" stroke="#D2232A" stroke-width=".242" d="M372.3 70.2c0 3.7-2.5 2.7-2.5 3.6 0 .2.1.4.4.4l4-.2c1.8 0 3.6.2 5.5.2 9.9 0 13.8-6.1 13.8-15 0-7.1-6.2-12.3-12.5-12.3-3.1 0-5.4.2-7.8.2l-3.2-.2c-.2 0-.5.1-.5.4 0 1 2.9-.2 2.9 3.7v19.2zm2.8-19.9c0-1.8.1-2.4 3.5-2.4 6.8 0 12.1 4.9 12.1 13.4 0 8.9-4.8 11.8-9.9 11.8-1.6 0-4.3-.5-5.5-1.7-.3-.3-.2-2.2-.2-2.8v-18.3z" fill="none"/><path clip-path="url(#b)" fill="#D2232A" d="M414.9 49.4c-.9-1.7-2.7-1.2-2.7-1.8 0-.3.2-.6.5-.6 1 0 1.6.2 4.1.2 1.2 0 2.1-.2 2.5-.2.2 0 .7 0 .7.4 0 .7-1.7.7-1.7 1.8 0 .6.4 1.2.6 1.6l4.3 7.4c.3.5.5.7.7.7.2 0 .4-.3.7-.8l3.7-6.4c.2-.4.8-1.1.8-2.1 0-1.9-2.7-1.1-2.7-2 0-.5.4-.6.8-.6.9 0 1.8.2 2.6.2l3.2.1c.2 0 .3 0 .3.2 0 .4-.6.6-.9.7-1 .6-1.4 1.7-2 2.7l-5 8.4c-.6 1-.9 1.2-.9 1.7v9.4c0 3.3 2.9 2.3 2.9 3.5 0 .3-.3.4-.8.4s-2.6-.2-3.9-.2c-1.6 0-2.9.2-3.2.2s-.5 0-.5-.5c0-1.1 2.8-.1 2.8-2.8v-9.3c0-.7-.5-1.5-.8-2l-6.1-10.3z"/><path clip-path="url(#b)" stroke="#D2232A" stroke-width=".242" d="M414.9 49.4c-.9-1.7-2.7-1.2-2.7-1.8 0-.3.2-.6.5-.6 1 0 1.6.2 4.1.2 1.2 0 2.1-.2 2.5-.2.2 0 .7 0 .7.4 0 .7-1.7.7-1.7 1.8 0 .6.4 1.2.6 1.6l4.3 7.4c.3.5.5.7.7.7.2 0 .4-.3.7-.8l3.7-6.4c.2-.4.8-1.1.8-2.1 0-1.9-2.7-1.1-2.7-2 0-.5.4-.6.8-.6.9 0 1.8.2 2.6.2l3.2.1c.2 0 .3 0 .3.2 0 .4-.6.6-.9.7-1 .6-1.4 1.7-2 2.7l-5 8.4c-.6 1-.9 1.2-.9 1.7v9.4c0 3.3 2.9 2.3 2.9 3.5 0 .3-.3.4-.8.4s-2.6-.2-3.9-.2c-1.6 0-2.9.2-3.2.2s-.5 0-.5-.5c0-1.1 2.8-.1 2.8-2.8v-9.3c0-.7-.5-1.5-.8-2l-6.1-10.3z" fill="none"/><path clip-path="url(#b)" fill="#D2232A" d="M439.5 50.9c0-.3.1-1.7-.4-1.8h-5.8c-2.2 0-2.4.5-3.6 2.6-.2.3-1 1.2-1.4 1.2l.7-.9.6-2.5c0-.5-.6-2.3 0-2.3h10.9c6.5 0 9.8-.2 10.5-.2.8 0 1 .2 1 1.1l.2 3.1c0 .4.1.8-.4.8-1.3 0 .6-2.9-3-2.9h-5.1c-1.6 0-1.4-.2-1.4 1.9v19.6c0 3.2 2.9 2 2.9 3.2 0 .1 0 .5-.3.5-.9 0-1.9-.2-2.9-.2-4 0-4.7.2-4.9.2-.3 0-.4-.1-.4-.5 0-.9 2.8-.5 2.8-2.8v-20.1z"/><path clip-path="url(#b)" stroke="#D2232A" stroke-width=".242" d="M439.5 50.9c0-.3.1-1.7-.4-1.8h-5.8c-2.2 0-2.4.5-3.6 2.6-.2.3-1 1.2-1.4 1.2l.7-.9.6-2.5c0-.5-.6-2.3 0-2.3h10.9c6.5 0 9.8-.2 10.5-.2.8 0 1 .2 1 1.1l.2 3.1c0 .4.1.8-.4.8-1.3 0 .6-2.9-3-2.9h-5.1c-1.6 0-1.4-.2-1.4 1.9v19.6c0 3.2 2.9 2 2.9 3.2 0 .1 0 .5-.3.5-.9 0-1.9-.2-2.9-.2-4 0-4.7.2-4.9.2-.3 0-.4-.1-.4-.5 0-.9 2.8-.5 2.8-2.8v-20.1z" fill="none"/><path clip-path="url(#b)" fill="#D2232A" d="M463.4 74.5c8 0 13.5-5.6 13.5-14.2 0-7.9-5.6-13.6-12.9-13.6-7.3 0-13.1 5.8-13.1 13.8s4.7 14 12.5 14m-.5-26.6c7 0 11.4 6.8 11.4 13.8 0 7.1-4.2 11.6-9.4 11.6-7.1 0-11.4-6.9-11.4-14 0-6 3.4-11.4 9.4-11.4"/><path clip-path="url(#b)" stroke="#D2232A" stroke-width=".242" d="M463.4 74.5c8 0 13.5-5.6 13.5-14.2 0-7.9-5.6-13.6-12.9-13.6-7.3 0-13.1 5.8-13.1 13.8s4.7 14 12.5 14zm-.5-26.6c7 0 11.4 6.8 11.4 13.8 0 7.1-4.2 11.6-9.4 11.6-7.1 0-11.4-6.9-11.4-14 0-6 3.4-11.4 9.4-11.4z" fill="none"/><path clip-path="url(#b)" fill="#D2232A" d="M480.2 54.5c0-8-4.3-5.8-4.3-7.2 0-.2.4-.4.5-.4l1.7.2 1.6-.2c.4 0 .7.6.9.9l17.1 20.4c.2.3.4.4.4.4.1 0 .1-.1.1-.4v-16c0-5-4-3.6-4-4.8 0-.3.2-.4.4-.4 1.1 0 2.1.2 3.3.2 1.2 0 2.7-.2 3.6-.2.2 0 .4.1.4.3 0 1-2.1.3-2.1 3.1v22.3c0 1.1 0 1.7-.3 1.7-.2 0-.6-.2-1.3-1.1l-15.4-18.6c-.1-.1-.5-.7-.8-.7-.1 0-.3.1-.3.9v15.7c0 3.4 3.1 2.1 3.1 3.1 0 .2 0 .5-.4.5-.9 0-1.9-.2-3.6-.2-1.2 0-3.1.2-3.4.2-.4 0-.5-.2-.5-.4 0-1.3 3.1.3 3.1-5v-14.3z"/><path clip-path="url(#b)" stroke="#D2232A" stroke-width=".242" d="M480.2 54.5c0-8-4.3-5.8-4.3-7.2 0-.2.4-.4.5-.4l1.7.2 1.6-.2c.4 0 .7.6.9.9l17.1 20.4c.2.3.4.4.4.4.1 0 .1-.1.1-.4v-16c0-5-4-3.6-4-4.8 0-.3.2-.4.4-.4 1.1 0 2.1.2 3.3.2 1.2 0 2.7-.2 3.6-.2.2 0 .4.1.4.3 0 1-2.1.3-2.1 3.1v22.3c0 1.1 0 1.7-.3 1.7-.2 0-.6-.2-1.3-1.1l-15.4-18.6c-.1-.1-.5-.7-.8-.7-.1 0-.3.1-.3.9v15.7c0 3.4 3.1 2.1 3.1 3.1 0 .2 0 .5-.4.5-.9 0-1.9-.2-3.6-.2-1.2 0-3.1.2-3.4.2-.4 0-.5-.2-.5-.4 0-1.3 3.1.3 3.1-5v-14.3z" fill="none"/><path clip-path="url(#b)" fill="#D2232A" d="M407 62.5h-7.1c-.5 0-.7-.2-.5-.7l4-10c.2-.5.4-.5.6 0l3.7 9.9c.3.5.1.8-.7.8m7.6 9.4c-.8-1.3-1.2-3-1.6-3.7l-7.4-19.8c-.3-1-.6-2.1-1-2.1-.5 0-.6.6-2.7 5.5l-8.5 19.6c-.9 2.2-2.6 1.5-2.6 2.3 0 .2.1.4.3.4.9 0 1.9-.2 2.9-.2l3 .2c.5 0 1 .1 1-.6 0-1-2.5.2-2.5-2.5 0-.5.1-1.1.2-1.3l1.9-4.2c.4-.8.6-1.3 2.1-1.3h7.9c1 0 1.4.6 1.7 1.5l1 2.5c.4 1 1.1 2.8 1.1 3.6 0 1.5-2.1 1.1-2.1 2 0 .4.6.4.8.4l2.9-.2 4.4.2c.2 0 .5 0 .5-.3-.1-1-2.2-.2-3.3-2"/><path clip-path="url(#b)" stroke="#D2232A" stroke-width=".242" d="M407 62.5h-7.1c-.5 0-.7-.2-.5-.7l4-10c.2-.5.4-.5.6 0l3.7 9.9c.3.5.1.8-.7.8zm7.6 9.4c-.8-1.3-1.2-3-1.6-3.7l-7.4-19.8c-.3-1-.6-2.1-1-2.1-.5 0-.6.6-2.7 5.5l-8.5 19.6c-.9 2.2-2.6 1.5-2.6 2.3 0 .2.1.4.3.4.9 0 1.9-.2 2.9-.2l3 .2c.5 0 1 .1 1-.6 0-1-2.5.2-2.5-2.5 0-.5.1-1.1.2-1.3l1.9-4.2c.4-.8.6-1.3 2.1-1.3h7.9c1 0 1.4.6 1.7 1.5l1 2.5c.4 1 1.1 2.8 1.1 3.6 0 1.5-2.1 1.1-2.1 2 0 .4.6.4.8.4l2.9-.2 4.4.2c.2 0 .5 0 .5-.3-.1-1-2.2-.2-3.3-2z" fill="none"/><path clip-path="url(#b)" fill="#D2232A" d="M93.8 64c0 6.2 3.7 9 8.5 9 6.7 0 8.2-4.8 8.2-9.4v-12.5c0-3.9-3.3-2.3-3.3-3.8 0-.2.2-.4.4-.4l4.2.2 2-.2c.2 0 .5.2.5.4 0 1.1-2.1.2-2.1 3.8v12c0 1.9.4 11.4-9.9 11.4-9.5.1-11.3-5.6-11.3-11.5v-13c0-2.3-2.9-1.4-2.9-2.6 0-.3.6-.4.8-.4.9 0 1.8.2 2.8.2l3.4-.2c.2 0 1.1-.1 1.1.4 0 1.1-2.4 0-2.4 2.8v13.8z"/><path clip-path="url(#b)" stroke="#D2232A" stroke-width=".242" d="M93.8 64c0 6.2 3.7 9 8.5 9 6.7 0 8.2-4.8 8.2-9.4v-12.5c0-3.9-3.3-2.3-3.3-3.8 0-.2.2-.4.4-.4l4.2.2 2-.2c.2 0 .5.2.5.4 0 1.1-2.1.2-2.1 3.8v12c0 1.9.4 11.4-9.9 11.4-9.5.1-11.3-5.6-11.3-11.5v-13c0-2.3-2.9-1.4-2.9-2.6 0-.3.6-.4.8-.4.9 0 1.8.2 2.8.2l3.4-.2c.2 0 1.1-.1 1.1.4 0 1.1-2.4 0-2.4 2.8v13.8z" fill="none"/><path clip-path="url(#b)" fill="#D2232A" d="M120.7 54.6c0-8-4.3-5.8-4.3-7.2 0-.2.4-.4.5-.4l1.7.2 1.6-.2c.4 0 .7.6.9.9l17 20.5c.2.3.4.4.4.4s.1-.1.1-.4v-16.2c0-5.1-3.9-3.6-3.9-4.9 0-.3.2-.4.4-.4l3.2.2c1.2 0 2.7-.2 3.6-.2.2 0 .4.1.4.3 0 1-2.1.3-2.1 3.1v22.4c0 1.1 0 1.7-.3 1.7-.2 0-.6-.2-1.4-1.1l-15.3-18.7c-.1-.1-.5-.7-.7-.7-.1 0-.2.1-.2.9v15.8c0 3.5 3.1 2.1 3.1 3.2 0 .2 0 .5-.4.5-.9 0-1.8-.2-3.6-.2-1.2 0-3.1.2-3.3.2-.4 0-.5-.2-.5-.4 0-1.4 3.1.3 3.1-5.1v-14.2z"/><path clip-path="url(#b)" stroke="#D2232A" stroke-width=".242" d="M120.7 54.6c0-8-4.3-5.8-4.3-7.2 0-.2.4-.4.5-.4l1.7.2 1.6-.2c.4 0 .7.6.9.9l17 20.5c.2.3.4.4.4.4s.1-.1.1-.4v-16.2c0-5.1-3.9-3.6-3.9-4.9 0-.3.2-.4.4-.4l3.2.2c1.2 0 2.7-.2 3.6-.2.2 0 .4.1.4.3 0 1-2.1.3-2.1 3.1v22.4c0 1.1 0 1.7-.3 1.7-.2 0-.6-.2-1.4-1.1l-15.3-18.7c-.1-.1-.5-.7-.7-.7-.1 0-.2.1-.2.9v15.8c0 3.5 3.1 2.1 3.1 3.2 0 .2 0 .5-.4.5-.9 0-1.8-.2-3.6-.2-1.2 0-3.1.2-3.3.2-.4 0-.5-.2-.5-.4 0-1.4 3.1.3 3.1-5.1v-14.2z" fill="none"/><path clip-path="url(#b)" fill="#D2232A" d="M150 50.3c0-2.8-2.9-2-2.9-2.9 0-.3.1-.4.4-.4l3.9.2 3.3-.2c.6 0 .7.1.7.4 0 .9-2.6 0-2.6 2.9v20.8c0 2.6 3.2 1.7 3.2 2.9 0 .3-.1.4-.7.4-.8 0-2.4-.2-3.9-.2-2.2 0-2.9.2-3.4.2-.6 0-.8-.2-.8-.6 0-1.1 2.8.2 2.8-3.7v-19.8z"/><path clip-path="url(#b)" stroke="#D2232A" stroke-width=".242" d="M150 50.3c0-2.8-2.9-2-2.9-2.9 0-.3.1-.4.4-.4l3.9.2 3.3-.2c.6 0 .7.1.7.4 0 .9-2.6 0-2.6 2.9v20.8c0 2.6 3.2 1.7 3.2 2.9 0 .3-.1.4-.7.4-.8 0-2.4-.2-3.9-.2-2.2 0-2.9.2-3.4.2-.6 0-.8-.2-.8-.6 0-1.1 2.8.2 2.8-3.7v-19.8z" fill="none"/><path clip-path="url(#b)" fill="#D2232A" d="M160.6 49.9c-.9-2.3-2.7-1.6-2.7-2.4 0-.3.2-.5.5-.5l3.3.2c1 0 2.3-.2 2.8-.2.2 0 .5.2.5.4 0 .5-1.5.6-1.5 2 0 .5.2 1.2.3 1.5l6.2 15.9c.8 2.1 1 2.9 1.4 2.9.4 0 .5-.6.6-1.1l6.2-16.6c.2-.6.6-1.8.5-2.6 0-1.8-2.3-1-2.3-1.9 0-.4.2-.5.5-.5.8 0 1.6.2 2.3.2 1.7 0 2.2-.2 2.7-.2.4 0 .6.2.6.5 0 .9-1-.1-2 2.5l-8.9 22.8c-.4 1-.6 2.2-1.2 2.2s-1-1.6-1.3-2.4l-8.5-22.7z"/><path clip-path="url(#b)" stroke="#D2232A" stroke-width=".242" d="M160.6 49.9c-.9-2.3-2.7-1.6-2.7-2.4 0-.3.2-.5.5-.5l3.3.2c1 0 2.3-.2 2.8-.2.2 0 .5.2.5.4 0 .5-1.5.6-1.5 2 0 .5.2 1.2.3 1.5l6.2 15.9c.8 2.1 1 2.9 1.4 2.9.4 0 .5-.6.6-1.1l6.2-16.6c.2-.6.6-1.8.5-2.6 0-1.8-2.3-1-2.3-1.9 0-.4.2-.5.5-.5.8 0 1.6.2 2.3.2 1.7 0 2.2-.2 2.7-.2.4 0 .6.2.6.5 0 .9-1-.1-2 2.5l-8.9 22.8c-.4 1-.6 2.2-1.2 2.2s-1-1.6-1.3-2.4l-8.5-22.7z" fill="none"/><path clip-path="url(#b)" fill="#D2232A" d="M190.3 58.2c0 1.3-.1 1.3 1.4 1.3h3.8c3.7 0 2.7-3.1 3.6-3.1.3 0 .4.4.4.7 0 1.4-.1 2.7-.1 3.9 0 1 .1 2 .1 3.1 0 .3-.1.5-.4.5-1.1 0 .1-3.4-2.9-3.4h-5.3c-.7 0-.6.7-.6 1.2v7.1c0 2.3-.3 3.2 2.7 3.2 8.2 0 9.4-4 9.9-4 .2 0 .3.4.3.5 0 1.4-.9 2.7-1.8 3.8-1.1 1.4-1.9 1.3-3.5 1.3l-8.1-.2-4.3.2c-.3 0-.5-.1-.5-.4.1-.5.4-.4 1.6-1 .9-.5 1-1.5 1-3.4v-17.5c0-1.7 0-3.6-1.9-3.9-.3-.1-1.1-.2-1.1-.6 0-.3.2-.5 1.2-.5 6.7 0 8.6.2 10.1.2.7 0 4-.2 5.1-.2.3 0 .4.4.4.9 0 4.3-.5 4.6-.7 4.6-.9 0-.3-1.9-.9-2.7-.9-1.3-4.6-1.1-6.1-1.1-3.4 0-3.3-.2-3.3 2.4v7.1z"/><path clip-path="url(#b)" stroke="#D2232A" stroke-width=".242" d="M190.3 58.2c0 1.3-.1 1.3 1.4 1.3h3.8c3.7 0 2.7-3.1 3.6-3.1.3 0 .4.4.4.7 0 1.4-.1 2.7-.1 3.9 0 1 .1 2 .1 3.1 0 .3-.1.5-.4.5-1.1 0 .1-3.4-2.9-3.4h-5.3c-.7 0-.6.7-.6 1.2v7.1c0 2.3-.3 3.2 2.7 3.2 8.2 0 9.4-4 9.9-4 .2 0 .3.4.3.5 0 1.4-.9 2.7-1.8 3.8-1.1 1.4-1.9 1.3-3.5 1.3l-8.1-.2-4.3.2c-.3 0-.5-.1-.5-.4.1-.5.4-.4 1.6-1 .9-.5 1-1.5 1-3.4v-17.5c0-1.7 0-3.6-1.9-3.9-.3-.1-1.1-.2-1.1-.6 0-.3.2-.5 1.2-.5 6.7 0 8.6.2 10.1.2.7 0 4-.2 5.1-.2.3 0 .4.4.4.9 0 4.3-.5 4.6-.7 4.6-.9 0-.3-1.9-.9-2.7-.9-1.3-4.6-1.1-6.1-1.1-3.4 0-3.3-.2-3.3 2.4v7.1z" fill="none"/><path clip-path="url(#b)" fill="#D2232A" d="M213 59.5c0 .7 2.2.5 3.9.5 1.5 0 4.9-.7 4.9-5.5 0-4.7-3.3-6.3-6.8-6.3-1.3 0-2-.1-2 1.4v9.9zm13 10.6c2.6 4.3 4.3 2.8 4.3 3.8 0 .5-2 .5-2.3.5-2.6 0-4-2-5.3-4.2l-4-6.8c-1.3-2.2-.7-2-4.7-2-1.1 0-.9.7-.9 1.1v8.2c0 3.3 3.7 2.1 3.7 3.4 0 .4-.3.3-.6.3s-1.1-.2-4.1-.2l-4.1.2c-.2 0-.4-.2-.4-.4 0-1 2.6-.4 2.6-3.4v-19.7c0-3.7-3.1-2.1-3.1-3.4 0-.2.3-.5.7-.5.6 0 .5.2 2.3.2 2.1 0 4.1-.2 5.9-.2.6 0 8.4-.8 8.4 6.7 0 3-2 5.6-4.5 6.7l6.1 9.7z"/><path clip-path="url(#b)" stroke="#D2232A" stroke-width=".242" d="M213 59.5c0 .7 2.2.5 3.9.5 1.5 0 4.9-.7 4.9-5.5 0-4.7-3.3-6.3-6.8-6.3-1.3 0-2-.1-2 1.4v9.9zm13 10.6c2.6 4.3 4.3 2.8 4.3 3.8 0 .5-2 .5-2.3.5-2.6 0-4-2-5.3-4.2l-4-6.8c-1.3-2.2-.7-2-4.7-2-1.1 0-.9.7-.9 1.1v8.2c0 3.3 3.7 2.1 3.7 3.4 0 .4-.3.3-.6.3s-1.1-.2-4.1-.2l-4.1.2c-.2 0-.4-.2-.4-.4 0-1 2.6-.4 2.6-3.4v-19.7c0-3.7-3.1-2.1-3.1-3.4 0-.2.3-.5.7-.5.6 0 .5.2 2.3.2 2.1 0 4.1-.2 5.9-.2.6 0 8.4-.8 8.4 6.7 0 3-2 5.6-4.5 6.7l6.1 9.7z" fill="none"/><path clip-path="url(#b)" fill="#D2232A" d="M231.6 67.5c-.1-.8 0-1.2.4-1.2.5 0 .5.5.7 1.3.4 1.8 2.6 5.8 7.5 5.8 3.4 0 6.7-2 6.7-6.1 0-7.5-14.5-3.3-14.5-13.4 0-4.9 3.8-7.3 7.9-7.3 4.3 0 5.5 1.4 6 1.4l.7-.4c.2 0 .4.1.4.5l.5 5.3c0 .3 0 .6-.4.6s-.6-.8-.7-1.2c-1.1-3.3-3.7-5-6.8-5-2.8 0-5.8 1.5-5.8 5 0 7.3 14.5 3 14.5 13.7 0 3.2-2.1 8.1-10.2 8.1-2.6 0-5.9-1.4-6-2.1l-.9-5z"/><path clip-path="url(#b)" stroke="#D2232A" stroke-width=".242" d="M231.6 67.5c-.1-.8 0-1.2.4-1.2.5 0 .5.5.7 1.3.4 1.8 2.6 5.8 7.5 5.8 3.4 0 6.7-2 6.7-6.1 0-7.5-14.5-3.3-14.5-13.4 0-4.9 3.8-7.3 7.9-7.3 4.3 0 5.5 1.4 6 1.4l.7-.4c.2 0 .4.1.4.5l.5 5.3c0 .3 0 .6-.4.6s-.6-.8-.7-1.2c-1.1-3.3-3.7-5-6.8-5-2.8 0-5.8 1.5-5.8 5 0 7.3 14.5 3 14.5 13.7 0 3.2-2.1 8.1-10.2 8.1-2.6 0-5.9-1.4-6-2.1l-.9-5z" fill="none"/><path clip-path="url(#b)" fill="#D2232A" d="M256.6 50.3c0-2.8-2.9-2-2.9-2.9 0-.3.1-.4.4-.4l3.9.2 3.3-.2c.6 0 .7.1.7.4 0 .9-2.6 0-2.6 2.9v20.8c0 2.6 3.2 1.7 3.2 2.9 0 .3-.1.4-.7.4-.8 0-2.4-.2-3.9-.2-2.2 0-2.9.2-3.4.2-.6 0-.8-.2-.8-.6 0-1.1 2.8.2 2.8-3.7v-19.8z"/><path clip-path="url(#b)" stroke="#D2232A" stroke-width=".242" d="M256.6 50.3c0-2.8-2.9-2-2.9-2.9 0-.3.1-.4.4-.4l3.9.2 3.3-.2c.6 0 .7.1.7.4 0 .9-2.6 0-2.6 2.9v20.8c0 2.6 3.2 1.7 3.2 2.9 0 .3-.1.4-.7.4-.8 0-2.4-.2-3.9-.2-2.2 0-2.9.2-3.4.2-.6 0-.8-.2-.8-.6 0-1.1 2.8.2 2.8-3.7v-19.8z" fill="none"/><path clip-path="url(#b)" fill="#D2232A" d="M275.9 50.9c0-.3.1-1.7-.4-1.8h-5.8c-2.2 0-2.3.6-2.9 2.7-.1.4-.1.9-.6.9-.2 0-.4-.3-.4-.5l.4-3.8c0-.5 0-1.5.6-1.5 2.8 0 5.5.2 10.1.2 6.4 0 9.7-.2 10.4-.2.8 0 1 .2 1 1.1l.2 3.1c0 .4.1.8-.4.8-1.3 0 .6-2.9-3-2.9h-5.1c-1.6 0-1.4-.2-1.4 1.9v19.7c0 3.2 2.9 2 2.9 3.2 0 .1 0 .5-.3.5-.9 0-1.9-.2-2.9-.2-4 0-4.7.2-4.9.2-.3 0-.4-.1-.4-.5 0-.9 2.8-.5 2.8-2.9v-20z"/><path clip-path="url(#b)" stroke="#D2232A" stroke-width=".242" d="M275.9 50.9c0-.3.1-1.7-.4-1.8h-5.8c-2.2 0-2.3.6-2.9 2.7-.1.4-.1.9-.6.9-.2 0-.4-.3-.4-.5l.4-3.8c0-.5 0-1.5.6-1.5 2.8 0 5.5.2 10.1.2 6.4 0 9.7-.2 10.4-.2.8 0 1 .2 1 1.1l.2 3.1c0 .4.1.8-.4.8-1.3 0 .6-2.9-3-2.9h-5.1c-1.6 0-1.4-.2-1.4 1.9v19.7c0 3.2 2.9 2 2.9 3.2 0 .1 0 .5-.3.5-.9 0-1.9-.2-2.9-.2-4 0-4.7.2-4.9.2-.3 0-.4-.1-.4-.5 0-.9 2.8-.5 2.8-2.9v-20z" fill="none"/><path clip-path="url(#b)" fill="#D2232A" d="M293.2 49.4c-.9-1.7-2.7-1.2-2.7-1.9 0-.3.2-.6.5-.6 1 0 1.6.2 4.1.2 1.2 0 2.1-.2 2.5-.2.2 0 .7 0 .7.4 0 .7-1.7.7-1.7 1.8 0 .6.4 1.2.6 1.6l4.3 7.5c.3.5.5.7.7.7.2 0 .4-.3.7-.8l3.7-6.5c.2-.4.7-1.1.7-2.1 0-1.9-2.7-1.1-2.7-2 0-.5.4-.6.7-.6l2.6.2 3.1-.2c.2 0 .4.3.4.5 0 .4-.6.6-.9.7-1 .6-1.4 1.7-2 2.7l-5 8.4c-.6 1-.9 1.2-.9 1.7v9.5c0 3.4 2.9 2.3 2.9 3.5 0 .3-.3.4-.8.4s-2.6-.2-3.9-.2c-1.6 0-2.9.2-3.2.2s-.5 0-.5-.5c0-1.1 2.7-.1 2.7-2.8v-9.4c0-.7-.5-1.5-.8-2l-5.8-10.2z"/><path clip-path="url(#b)" stroke="#D2232A" stroke-width=".242" d="M293.2 49.4c-.9-1.7-2.7-1.2-2.7-1.9 0-.3.2-.6.5-.6 1 0 1.6.2 4.1.2 1.2 0 2.1-.2 2.5-.2.2 0 .7 0 .7.4 0 .7-1.7.7-1.7 1.8 0 .6.4 1.2.6 1.6l4.3 7.5c.3.5.5.7.7.7.2 0 .4-.3.7-.8l3.7-6.5c.2-.4.7-1.1.7-2.1 0-1.9-2.7-1.1-2.7-2 0-.5.4-.6.7-.6l2.6.2 3.1-.2c.2 0 .4.3.4.5 0 .4-.6.6-.9.7-1 .6-1.4 1.7-2 2.7l-5 8.4c-.6 1-.9 1.2-.9 1.7v9.5c0 3.4 2.9 2.3 2.9 3.5 0 .3-.3.4-.8.4s-2.6-.2-3.9-.2c-1.6 0-2.9.2-3.2.2s-.5 0-.5-.5c0-1.1 2.7-.1 2.7-2.8v-9.4c0-.7-.5-1.5-.8-2l-5.8-10.2z" fill="none"/><path clip-path="url(#b)" fill="#D2232A" d="M330.6 73.7c4.6 0 5.7-6.6 5.7-10.4 0-2.8-.6-5.2-3.5-5.2-4.4 0-5.5 6.4-5.5 10 0 2.5.5 5.6 3.3 5.6m-5.7-5.9c0-4.8 3-10.6 8-10.6 3.9 0 5.9 3 5.9 7 0 5-3 10.3-8.1 10.3-3.8.1-5.8-2.8-5.8-6.7"/><path clip-path="url(#b)" stroke="#D2232A" stroke-width=".242" d="M330.6 73.7c4.6 0 5.7-6.6 5.7-10.4 0-2.8-.6-5.2-3.5-5.2-4.4 0-5.5 6.4-5.5 10 0 2.5.5 5.6 3.3 5.6zm-5.7-5.9c0-4.8 3-10.6 8-10.6 3.9 0 5.9 3 5.9 7 0 5-3 10.3-8.1 10.3-3.8.1-5.8-2.8-5.8-6.7z" fill="none"/><path clip-path="url(#b)" fill="#D2232A" d="M346.5 58.1c.4 0 .4-2 1.7-6.1 1.2-3.8 3.6-6.3 5.9-6.3 1.5 0 1.6.5 1.6 1.2 0 1 0 2.3-.6 2.3-.5 0-.7-1.7-2.3-1.7-2.7 0-3.5 9.2-3.5 10 0 .3-.1.7 0 .7h2.2c.5 0 1-.1 1 .7 0 .8-.5.7-1 .7h-1.9c-1 0-.8.4-.9 1.5l-1.5 14.1c-.7 6.6-4.8 7-5.2 7-.6 0-1.1-.3-1.1-1 0-1 .4-2.7.9-2.7.7 0 .4 2 1.2 2 .2 0 1.3.2 1.6-2.6l1.9-18c0-.2 0-.3-.2-.3h-2c-.5 0-1 .1-1-.7 0-.8.5-.7 1-.7h2.2z"/><path clip-path="url(#b)" stroke="#D2232A" stroke-width=".242" d="M346.5 58.1c.4 0 .4-2 1.7-6.1 1.2-3.8 3.6-6.3 5.9-6.3 1.5 0 1.6.5 1.6 1.2 0 1 0 2.3-.6 2.3-.5 0-.7-1.7-2.3-1.7-2.7 0-3.5 9.2-3.5 10 0 .3-.1.7 0 .7h2.2c.5 0 1-.1 1 .7 0 .8-.5.7-1 .7h-1.9c-1 0-.8.4-.9 1.5l-1.5 14.1c-.7 6.6-4.8 7-5.2 7-.6 0-1.1-.3-1.1-1 0-1 .4-2.7.9-2.7.7 0 .4 2 1.2 2 .2 0 1.3.2 1.6-2.6l1.9-18c0-.2 0-.3-.2-.3h-2c-.5 0-1 .1-1-.7 0-.8.5-.7 1-.7h2.2z" fill="none"/></svg>