<?xml version="1.0" encoding="UTF-8"?>
<!DOCTYPE svg PUBLIC "-//W3C//DTD SVG 1.1//EN" "http://www.w3.org/Graphics/SVG/1.1/DTD/svg11.dtd">
<!-- Creator: CorelDRAW X6 -->
<svg xmlns="http://www.w3.org/2000/svg" xml:space="preserve" width="2.88889in" height="1in" version="1.1" style="shape-rendering:geometricPrecision; text-rendering:geometricPrecision; image-rendering:optimizeQuality; fill-rule:evenodd; clip-rule:evenodd"
viewBox="0 0 2889 1000"
 xmlns:xlink="http://www.w3.org/1999/xlink">
 <defs>
  <style type="text/css">
   <![CDATA[
    .fil1 {fill:#052F83;fill-rule:nonzero}
    .fil0 {fill:#BC0A29;fill-rule:nonzero}
   ]]>
  </style>
 </defs>
 <g id="Layer_x0020_1">
  <metadata id="CorelCorpID_0Corel-Layer"/>
  <path class="fil0" d="M83 908c0,79 -55,58 -55,78 0,5 2,8 8,8 5,0 80,-3 87,-3 40,0 79,3 119,3 215,0 299,-133 299,-324 0,-154 -135,-266 -272,-266 -67,0 -117,3 -168,3 -23,0 -46,-3 -70,-3 -5,0 -11,2 -11,8 0,23 64,-4 64,81l0 415zm61 -431c0,-39 3,-53 77,-53 147,1 262,106 262,291 0,193 -105,256 -215,256 -35,0 -94,-10 -119,-38 -7,-8 -5,-48 -5,-61l0 -396z"/>
  <path class="fil0" d="M1013 456c-20,-36 -58,-26 -58,-40 0,-6 5,-13 10,-13 21,0 36,3 88,3 26,0 47,-3 54,-3 5,0 15,1 15,8 0,14 -36,15 -36,39 0,13 9,27 14,34l94 161c6,10 11,15 16,15 4,0 9,-6 15,-17l80 -139c5,-9 16,-23 16,-46 0,-41 -58,-23 -58,-43 0,-11 8,-13 16,-13 19,0 38,3 57,3 22,0 47,2 69,2 5,0 7,1 7,5 0,9 -13,13 -19,16 -21,13 -31,37 -43,58l-109 182c-12,21 -19,25 -19,38l0 204c0,73 64,49 64,75 0,7 -7,8 -18,8 -12,0 -57,-3 -85,-3 -35,0 -63,3 -70,3 -7,0 -12,-1 -12,-10 0,-23 60,-2 60,-61l0 -202c0,-16 -12,-33 -18,-43l-129 -223z"/>
  <path class="fil0" d="M1548 488c0,-6 3,-38 -8,-38l-126 0c-48,0 -52,10 -78,55 -4,7 -21,25 -31,25 -5,0 15,-15 15,-19l14 -54c1,-10 -13,-50 1,-50 62,0 139,0 237,0 140,0 212,-3 227,-3 18,0 21,5 22,24l4 67c1,8 2,18 -8,18 -29,0 13,-63 -66,-63l-111 0c-35,0 -31,-3 -31,41l0 425c0,70 63,43 63,68 0,3 1,10 -7,10 -19,0 -40,-3 -63,-3 -87,0 -102,3 -106,3 -7,0 -9,-2 -9,-11 0,-20 61,-12 61,-62l0 -433z"/>
  <path class="fil0" d="M2068 1000c173,0 293,-121 293,-308 0,-172 -122,-295 -280,-295 -159,0 -284,126 -284,299 0,176 103,304 271,304zm-10 -576c151,0 247,147 247,299 0,154 -91,252 -204,252 -154,0 -247,-149 -247,-303 0,-132 74,-247 205,-247z"/>
  <path class="fil0" d="M2420 552c0,-173 -94,-125 -94,-156 0,-5 8,-8 12,-8 12,0 24,3 36,3 12,0 24,-3 36,-3 9,0 15,13 20,19l370 443c5,6 8,9 9,9 2,0 2,-2 2,-9l0 -349c0,-109 -86,-78 -86,-105 0,-6 4,-8 9,-8 23,0 46,3 71,3 26,0 59,-3 78,-3 5,0 8,3 8,8 0,22 -46,7 -46,68l0 483c0,24 -1,36 -7,36 -5,0 -13,-4 -29,-23l-334 -404c-2,-2 -11,-16 -16,-16 -3,0 -5,3 -5,19l0 341c0,75 68,46 68,68 0,4 -1,11 -9,11 -19,0 -40,-3 -78,-3 -27,0 -67,3 -73,3 -9,0 -10,-5 -10,-9 0,-29 68,7 68,-109l0 -308z"/>
  <path class="fil0" d="M838 740l-153 0c-10,0 -15,-3 -10,-15l88 -216c5,-10 9,-10 12,0l81 215c4,11 0,16 -17,16zm166 205c-18,-29 -27,-64 -34,-80l-161 -429c-7,-21 -12,-45 -21,-45 -10,0 -12,13 -58,118l-185 425c-20,48 -57,33 -57,51 0,5 2,9 7,9 20,0 41,-3 62,-3 22,0 43,3 65,3 10,0 21,3 21,-13 0,-22 -55,3 -55,-55 0,-11 3,-23 5,-29l41 -92c8,-17 13,-28 45,-28l170 0c22,0 30,13 38,32l21 54c8,22 24,61 24,79 0,32 -46,23 -46,43 0,8 12,8 17,8 21,0 42,-3 63,-3 32,0 64,3 95,3 5,0 11,0 11,-8 0,-21 -45,-3 -68,-41z"/>
  <path class="fil1" d="M61 184c0,67 40,97 92,97 72,0 89,-52 89,-101l0 -135c0,-42 -36,-25 -36,-41 0,-2 3,-4 4,-4 15,0 30,2 45,2 7,0 14,-2 21,-2 2,0 5,2 5,5 0,12 -23,2 -23,41l0 129c0,20 5,123 -107,123 -101,0 -120,-61 -120,-125l0 -141c0,-25 -31,-15 -31,-28 0,-3 7,-4 8,-4 10,0 20,2 30,2 12,0 25,-2 36,-2 2,0 12,-1 12,4 0,12 -26,0 -26,30l0 150z"/>
  <path class="fil1" d="M353 82c0,-87 -46,-63 -46,-78 0,-3 4,-4 6,-4 6,0 12,2 18,2 6,0 12,-2 18,-2 4,0 8,7 10,10l183 221c2,3 4,5 5,5 1,0 1,-1 1,-5l0 -174c0,-55 -43,-39 -43,-53 0,-3 2,-4 4,-4 11,0 23,2 35,2 13,0 30,-2 39,-2 2,0 4,1 4,4 0,11 -23,3 -23,34l0 241c0,12 0,18 -3,18 -3,0 -7,-2 -15,-12l-165 -202c-1,-1 -5,-8 -8,-8 -2,0 -3,1 -3,10l0 171c0,37 34,23 34,34 0,2 0,5 -4,5 -9,0 -20,-2 -39,-2 -13,0 -33,2 -36,2 -5,0 -5,-2 -5,-5 0,-15 34,4 34,-55l0 -154z"/>
  <path class="fil1" d="M669 36c0,-30 -31,-22 -31,-31 0,-4 1,-5 4,-5 14,0 28,2 42,2 12,0 24,-2 36,-2 6,0 7,1 7,4 0,10 -28,0 -28,32l0 224c0,28 34,19 34,31 0,3 -1,4 -8,4 -9,0 -25,-2 -42,-2 -23,0 -31,2 -37,2 -7,0 -8,-2 -8,-6 0,-12 30,2 30,-40l0 -213z"/>
  <path class="fil1" d="M784 32c-10,-25 -30,-17 -30,-26 0,-4 2,-6 5,-6 12,0 24,2 35,2 10,0 25,-2 30,-2 2,0 5,2 5,4 0,6 -16,6 -16,21 0,6 2,13 3,16l67 172c8,22 11,32 15,32 4,0 5,-7 7,-12l67 -179c2,-6 7,-20 5,-28 0,-19 -25,-11 -25,-21 0,-4 2,-5 6,-5 8,0 17,2 25,2 18,0 24,-2 30,-2 4,0 7,2 7,5 0,9 -11,-1 -21,27l-95 245c-4,10 -7,24 -13,24 -6,0 -11,-18 -14,-26l-95 -243z"/>
  <path class="fil1" d="M1104 121c0,14 -1,14 15,14l41 0c40,0 30,-33 39,-33 3,0 4,5 4,8 0,15 -1,29 -1,42 0,11 1,22 1,33 0,4 -2,5 -4,5 -12,0 1,-37 -31,-37l-57 0c-8,0 -7,7 -7,13l0 77c0,25 -3,35 29,35 89,0 102,-43 107,-43 3,0 3,4 3,5 0,15 -10,30 -19,41 -12,15 -21,14 -38,14 -29,0 -58,-3 -87,-2 -15,0 -31,2 -47,2 -3,0 -6,-1 -6,-4 1,-5 5,-4 17,-11 10,-5 11,-17 11,-36l0 -190c0,-19 0,-39 -21,-42 -3,-1 -11,-2 -11,-7 0,-3 2,-5 13,-5 72,0 92,2 109,2 8,0 43,-2 55,-2 3,0 4,4 4,9 0,46 -5,50 -8,50 -9,0 -3,-20 -9,-30 -10,-14 -50,-12 -65,-12 -37,0 -36,-2 -36,26l0 78z"/>
  <path class="fil1" d="M1425 144c27,-12 48,-40 48,-72 0,-80 -85,-72 -91,-72 -20,0 -42,2 -64,2 -20,0 -18,-2 -25,-2 -5,0 -8,3 -8,5 0,14 33,-3 33,37l0 212c0,32 -28,26 -28,36 0,2 2,5 4,5 15,0 29,-2 44,-2 32,0 41,2 44,2 3,0 7,1 7,-3 0,-14 -40,-1 -40,-37l0 -88c0,-4 -2,-12 10,-12 43,0 37,-1 51,22l43 73c15,24 29,45 57,45 3,0 25,0 25,-5 0,-10 -19,5 -46,-40l-64 -106zm-76 -115c0,-16 8,-15 22,-15 38,0 73,17 73,68 0,52 -37,59 -53,59 -18,0 -42,2 -42,-6l0 -106z"/>
  <path class="fil1" d="M1552 222c-2,-8 0,-13 4,-13 5,0 5,5 7,14 5,19 28,63 81,63 36,0 72,-22 72,-66 0,-80 -156,-35 -156,-144 0,-53 41,-78 85,-78 46,0 59,15 64,15 3,0 4,-5 8,-5 2,0 4,1 5,6l6 57c0,3 0,6 -4,6 -4,0 -7,-9 -8,-12 -12,-36 -40,-54 -73,-54 -30,0 -63,16 -63,54 0,78 156,32 156,147 0,35 -23,88 -110,88 -28,0 -63,-15 -65,-23l-9 -54z"/>
  <path class="fil1" d="M1822 36c0,-30 -31,-22 -31,-31 0,-4 1,-5 4,-5 14,0 28,2 42,2 12,0 24,-2 36,-2 6,0 7,1 7,4 0,10 -28,0 -28,32l0 224c0,28 34,19 34,31 0,3 -1,4 -8,4 -9,0 -25,-2 -42,-2 -23,0 -31,2 -37,2 -7,0 -8,-2 -8,-6 0,-12 30,2 30,-40l0 -213z"/>
  <path class="fil1" d="M2029 42c0,-3 2,-19 -4,-19l-62 0c-24,0 -25,6 -31,29 -1,4 -2,10 -7,10 -2,0 -4,-3 -4,-5l4 -40c0,-5 0,-16 7,-16 30,0 59,2 109,2 69,0 104,-2 112,-2 9,0 11,3 11,12l2 33c0,4 1,9 -4,9 -14,0 7,-32 -33,-32l-55 0c-17,0 -15,-2 -15,20l0 213c0,35 31,21 31,34 0,1 0,5 -3,5 -9,0 -20,-2 -31,-2 -43,0 -50,2 -53,2 -3,0 -5,-1 -5,-5 0,-10 30,-6 30,-31l0 -217z"/>
  <path class="fil1" d="M2216 27c-10,-18 -29,-13 -29,-20 0,-3 2,-6 5,-6 10,0 18,2 44,2 13,0 23,-2 27,-2 3,0 7,0 7,4 0,7 -18,7 -18,20 0,7 5,13 7,17l46 80c3,5 5,8 8,8 2,0 4,-3 7,-8l39 -70c3,-5 8,-12 8,-23 0,-20 -29,-12 -29,-22 0,-5 4,-6 8,-6 9,0 19,2 28,2 11,0 22,-2 33,-2 2,0 4,3 4,5 0,5 -7,6 -9,8 -10,7 -15,18 -21,29l-54 91c-6,10 -9,13 -9,19l0 102c0,36 31,25 31,38 0,4 -3,4 -9,4 -6,0 -28,-2 -42,-2 -17,0 -31,2 -35,2 -3,0 -6,0 -6,-5 0,-12 30,-1 30,-30l0 -101c0,-8 -6,-16 -9,-21l-64 -111z"/>
  <path class="fil1" d="M2620 298c55,0 87,-57 87,-112 0,-43 -21,-76 -63,-76 -53,0 -86,62 -86,114 0,42 21,73 61,73zm-36 -69c0,-40 12,-108 60,-108 31,0 38,26 38,56 0,41 -12,112 -62,112 -30,0 -36,-34 -36,-60z"/>
  <path class="fil1" d="M2793 121c5,0 4,-22 18,-66 13,-41 39,-67 63,-67 15,0 17,4 17,11l0 7c0,9 -1,19 -7,19 -6,0 -7,-18 -25,-18 -29,0 -38,99 -38,107 0,3 -2,7 0,7l24 0c5,0 11,-1 11,8 0,8 -5,8 -11,8l-20 0c-10,0 -8,5 -10,16l-16 152c-7,71 -51,75 -56,75 -7,0 -12,-3 -12,-11 0,-11 4,-29 10,-29 7,0 4,21 13,21 2,0 14,2 17,-28l20 -194c0,-2 0,-4 -2,-4l-22 0c-5,0 -11,1 -11,-8 0,-9 5,-8 11,-8l23 0z"/>
 </g>
</svg>
